<svg width="100" height="116" fill="none" xmlns="http://www.w3.org/2000/svg"><path opacity=".43" d="M75.013 14.558C51.116.76 20.529 8.977 6.716 32.902c-13.813 23.926-5.635 54.523 18.262 68.32 23.896 13.796 54.483 5.58 68.296-18.345 13.814-23.926 5.68-54.497-18.261-68.32zM37.384 79.733c-12.037-6.95-16.163-22.388-9.205-34.44 6.957-12.05 22.39-16.196 34.427-9.246 12.037 6.949 16.163 22.387 9.206 34.439-6.958 12.05-22.347 16.222-34.428 9.247z" fill="#3F3F67"/><path d="M61.28 64.405l-40.27-23.25c-3.806-2.197-3.747-7.716.182-9.82L78.232.703c4.972-2.683 10.34 2.838 7.5 7.756L61.28 64.405z" fill="#3F3F67"/><path d="M38.755 51.4l40.27 23.25c3.806 2.197 3.747 7.716-.182 9.82l-57.04 30.632c-4.972 2.683-10.34-2.839-7.5-7.757L38.754 51.4z" fill="#3F3F67"/><path d="M61.28 64.404l-24.936-7.602 2.411-5.402L61.28 64.404z" fill="#2A2A4D"/></svg>