<svg width="221" height="62" fill="none" xmlns="http://www.w3.org/2000/svg"><path d="M84.31 44.539c4.71 0 8.016-2.433 8.016-6.769 0-3.867-2.495-5.458-6.924-6.612-3.774-.966-4.71-1.434-4.71-2.869 0-1.123.967-1.965 2.807-1.965 1.84 0 3.743.811 5.677 2.152l2.495-3.618c-2.215-1.778-4.928-2.776-8.11-2.776-4.46 0-7.64 2.62-7.64 6.581 0 4.398 2.837 5.614 7.235 6.737 3.65.936 4.398 1.56 4.398 2.776 0 1.341-1.185 2.12-3.15 2.12-2.495 0-4.554-1.028-6.519-2.65l-2.838 3.4c2.62 2.339 5.957 3.493 9.263 3.493zm12.184-.312h4.803v-6.675l2.527-2.62 6.768 9.295h5.77l-9.295-12.57 8.889-9.263h-5.801l-8.858 9.544v-9.544h-4.803v21.833zm23.001 0h4.803V22.394h-4.803v21.833zm10.259 0h4.741v-13.88l10.573 13.88h4.086V22.394h-4.741v13.443l-10.23-13.443h-4.429v21.833z" fill="#fff"/><path d="M164.999 44.601c6.737 0 11.634-5.084 11.634-11.29 0-6.27-4.834-11.291-11.571-11.291s-11.634 5.084-11.634 11.29c0 6.27 4.835 11.291 11.571 11.291zm.063-4.429c-3.868 0-6.612-3.119-6.612-6.861 0-3.805 2.682-6.862 6.549-6.862 3.868 0 6.613 3.119 6.613 6.862 0 3.805-2.683 6.861-6.55 6.861zm24.939 4.398c5.864 0 9.576-3.244 9.576-9.856v-12.32h-4.804v12.507c0 3.462-1.777 5.24-4.709 5.24-2.932 0-4.71-1.84-4.71-5.396v-12.35h-4.803V34.87c0 6.425 3.587 9.7 9.45 9.7zm19.553-.343h4.803V26.823H221v-4.429h-18.09v4.43h6.644v17.403z" fill="#D92948"/><path opacity=".43" d="M39.855 7.734C27.158.404 10.907 4.77 3.568 17.481-3.77 30.193.574 46.449 13.271 53.779c12.696 7.33 28.947 2.965 36.286-9.747 7.339-12.711 3.017-28.954-9.703-36.298zM19.862 42.362c-6.395-3.692-8.587-11.895-4.89-18.298 3.696-6.402 11.896-8.605 18.291-4.913 6.395 3.693 8.587 11.895 4.89 18.298-3.696 6.403-11.872 8.619-18.29 4.913z" fill="url(#paint0_linear_1_455)"/><path d="M32.558 34.218L11.162 21.866c-2.022-1.168-1.99-4.1.097-5.218L41.565.373c2.641-1.425 5.493 1.508 3.985 4.121L32.558 34.218z" fill="#D92948"/><path d="M20.59 27.309L41.987 39.66c2.022 1.168 1.99 4.1-.096 5.218L11.584 61.154c-2.642 1.425-5.494-1.508-3.985-4.121l12.992-29.724z" fill="#D92948"/><path d="M32.558 34.218l-13.248-4.04 1.28-2.87 11.968 6.91z" fill="#8E221F"/><defs><linearGradient id="paint0_linear_1_455" x1="26.87" y1="-2.286" x2="26.381" y2="59.123" gradientUnits="userSpaceOnUse"><stop stop-color="#DB2F36"/><stop offset="1" stop-color="#5474BF"/></linearGradient></defs></svg>