<svg width="50" height="58" fill="none" xmlns="http://www.w3.org/2000/svg"><path opacity=".43" d="M37.506 7.279C25.558.381 10.265 4.489 3.358 16.451c-6.907 11.963-2.817 27.261 9.13 34.16 11.949 6.898 27.242 2.79 34.15-9.172 6.906-11.963 2.839-27.249-9.132-34.16zM18.692 39.866c-6.018-3.474-8.082-11.193-4.603-17.219 3.48-6.026 11.196-8.098 17.214-4.624 6.019 3.475 8.082 11.194 4.603 17.22-3.48 6.026-11.173 8.111-17.214 4.623z" fill="url(#paint0_linear_1_420)"/><path d="M30.64 32.202L10.505 20.577c-1.903-1.098-1.873-3.858.09-4.91L39.117.352c2.486-1.341 5.17 1.42 3.75 3.879L30.64 32.202z" fill="#F95043"/><path d="M19.378 25.7l20.135 11.625c1.902 1.098 1.873 3.858-.091 4.91L10.9 57.55c-2.486 1.341-5.17-1.42-3.75-3.878L19.378 25.7z" fill="#F95043"/><path d="M30.64 32.202l-12.468-3.801 1.206-2.701 11.262 6.502z" fill="#D13733"/><defs><linearGradient id="paint0_linear_1_420" x1="25.287" y1="-2.151" x2="24.827" y2="55.64" gradientUnits="userSpaceOnUse"><stop stop-color="#DB2F36"/><stop offset="1" stop-color="#5474BF"/></linearGradient></defs></svg>