<svg width="24" height="24" fill="none" xmlns="http://www.w3.org/2000/svg"><path d="M4 17.8v-5.6c0-1.12 0-1.68.218-2.108a2 2 0 01.874-.874C5.52 9 6.08 9 7.2 9h9.6c1.12 0 1.68 0 2.108.218a2 2 0 01.874.874C20 10.52 20 11.08 20 12.2v5.6c0 1.12 0 1.68-.218 2.108a2 2 0 01-.874.874C18.48 21 17.92 21 16.8 21H7.2c-1.12 0-1.68 0-2.108-.218a2 2 0 01-.874-.874C4 19.48 4 18.92 4 17.8zm5-9.03V6a3 3 0 116 0v2.77a.23.23 0 01-.231.23H9.23A.23.23 0 019 8.77z" stroke="#8787AB" stroke-width="1.5" stroke-linecap="round" stroke-linejoin="round"/></svg>