<svg width="103" height="118" fill="none" xmlns="http://www.w3.org/2000/svg"><path opacity=".43" d="M76.825 14.746C52.655.771 21.719 9.093 7.748 33.328c-13.97 24.235-5.699 55.228 18.47 69.203 24.17 13.975 55.106 5.653 69.077-18.582 13.971-24.235 5.744-55.202-18.47-69.203zM38.766 80.764c-12.174-7.04-16.347-22.677-9.31-34.884 7.037-12.208 22.647-16.406 34.821-9.367 12.174 7.04 16.348 22.677 9.31 34.884-7.037 12.207-22.602 16.432-34.82 9.367z" fill="#414165" fill-opacity=".2"/><path d="M62.935 65.238l-40.73-23.551c-3.85-2.225-3.79-7.816.184-9.947L80.082.712c5.028-2.718 10.457 2.875 7.585 7.856l-24.732 56.67z" fill="#414165" fill-opacity=".2"/><path d="M40.153 52.065l40.73 23.55c3.85 2.226 3.79 7.817-.184 9.947l-57.692 31.029c-5.028 2.717-10.458-2.875-7.586-7.857l24.732-56.67z" fill="#414165" fill-opacity=".2"/><path d="M62.935 65.238l-25.22-7.701 2.438-5.472 22.782 13.173z" fill="#414165" fill-opacity=".2"/></svg>